<svg width="60" height="60" viewBox="0 0 60 60" fill="none" xmlns="http://www.w3.org/2000/svg">
    <path d="M60 30C60 35.9334 58.2405 41.7336 54.9441 46.6671C51.6476 51.6006 46.9623 55.4458 41.4805 57.7164C35.9987 59.987 29.9667 60.5811 24.1473 59.4236C18.3279 58.266 12.9824 55.4088 8.7868 51.2132C4.59122 47.0176 1.734 41.6721 0.576442 35.8527C-0.581115 30.0333 0.0129851 24.0013 2.28361 18.5195C4.55424 13.0377 8.39942 8.35235 13.3329 5.05591C18.2664 1.75947 24.0666 -7.07556e-08 30 0L30 5.04812C25.065 5.04812 20.2408 6.51152 16.1375 9.25327C12.0342 11.995 8.83602 15.892 6.94747 20.4513C5.05892 25.0107 4.56479 30.0277 5.52756 34.8679C6.49034 39.7081 8.86677 44.1541 12.3564 47.6436C15.8459 51.1332 20.2919 53.5097 25.1321 54.4724C29.9723 55.4352 34.9893 54.9411 39.5487 53.0525C44.108 51.164 48.005 47.9658 50.7467 43.8625C53.4885 39.7592 54.9519 34.935 54.9519 30H60Z" fill="url(#paint0_linear)"/>
    <defs>
        <linearGradient id="paint0_linear" x1="37.5" y1="24" x2="60" y2="18.5" gradientUnits="userSpaceOnUse">
            <stop stop-color="#3369F3"/>
            <stop offset="1" stop-color="#3369F3" stop-opacity="0"/>
        </linearGradient>
    </defs>
</svg>
